<?xml version="1.0" encoding="UTF-8" standalone="no"?>
<svg
   xmlns:dc="http://purl.org/dc/elements/1.1/"
   xmlns:cc="http://creativecommons.org/ns#"
   xmlns:rdf="http://www.w3.org/1999/02/22-rdf-syntax-ns#"
   xmlns:svg="http://www.w3.org/2000/svg"
   xmlns="http://www.w3.org/2000/svg"
   id="svg8"
   version="1.1"
   viewBox="0 0 15.08125 10.318751"
   height="39"
   width="57">
  <defs
     id="defs2" />
  <metadata
     id="metadata5">
    <rdf:RDF>
      <cc:Work
         rdf:about="">
        <dc:format>image/svg+xml</dc:format>
        <dc:type
           rdf:resource="http://purl.org/dc/dcmitype/StillImage" />
        <dc:title></dc:title>
      </cc:Work>
    </rdf:RDF>
  </metadata>
  <g
     transform="translate(0,-286.68125)"
     id="layer1">
    <g
       style="fill:#ff7f2a;fill-opacity:1"
       transform="translate(-51.165664,157.67783)"
       id="g985">
      <path
         style="fill:#ff7f2a;fill-opacity:1;fill-rule:evenodd;stroke:none;stroke-width:0.07601265px;stroke-linecap:butt;stroke-linejoin:miter;stroke-opacity:1"
         d="m 51.167974,134.1851 c 0,1.77372 1.31675,5.10621 5.07919,5.10621 3.76243,0 9.99744,-5.10621 9.99744,-5.10621 l -0.12084,-0.0223 0.12084,-0.0223 c 0,0 -6.23501,-5.10621 -9.99744,-5.10621 -3.76244,0 -5.07919,3.33249 -5.07919,5.10621 0,0.007 8.1e-4,0.0148 8.9e-4,0.0223 -8e-5,0.007 -8.9e-4,0.0148 -8.9e-4,0.0223 z m 0.91111,-0.0223 a 4.2377054,4.2377054 0 0 1 4.23771,-4.23771 4.2377054,4.2377054 0 0 1 4.2377,4.23771 4.2377054,4.2377054 0 0 1 -4.2377,4.2377 4.2377054,4.2377054 0 0 1 -4.23771,-4.2377 z"
         id="path847-5-7" />
      <path
         style="fill:#ff7f2a;fill-opacity:1;fill-rule:evenodd;stroke:none;stroke-width:0.07601265px;stroke-linecap:butt;stroke-linejoin:miter;stroke-opacity:1"
         d="m 55.261511,130.70586 c -0.213784,0 -0.24229,0.22803 -0.24229,0.22803 v 1.71504 h -0.553467 c 0,0 -0.05701,0.01 -0.104517,0.0618 -0.04751,0.0523 -0.05746,0.15915 -0.05746,0.15915 v 2.3987 l 0.537433,0.75241 h 0.886913 v 1.81406 h 0.224475 0.33983 0.224475 v -1.81406 h 0.886913 l 0.537434,-0.75241 v -2.3987 c 0,0 -0.0099,-0.10689 -0.05745,-0.15915 -0.04751,-0.0523 -0.104518,-0.0618 -0.104518,-0.0618 h -0.553467 v -1.71504 c 0,0 -0.0285,-0.22803 -0.24229,-0.22803 -0.213786,0 -0.266044,0.18053 -0.266044,0.18053 v 1.76729 h -0.09724 -0.995439 -0.09724 v -1.76729 c 0,0 -0.05226,-0.18053 -0.266045,-0.18053 z m 0.775567,2.42617 h 0.722269 l -0.520657,0.82634 h 0.604687 l -1.394061,1.73685 0.473594,-1.20937 h -0.557624 z"
         id="path865-8-7" />
    </g>
  </g>
</svg>
